<svg id="email-mail-sent" xmlns="http://www.w3.org/2000/svg" width="30.759" height="17.996" viewBox="0 0 30.759 17.996">
  <path id="Path_1" data-name="Path 1" d="M7.4,0H29.433a1.31,1.31,0,0,1,1.322,1.427L29.648,16.569a1.529,1.529,0,0,1-.305.8.6.6,0,0,1-.148.2.568.568,0,0,1-.14.093,1.515,1.515,0,0,1-.936.333H6.085a1.31,1.31,0,0,1-1.324-1.427l.313-2.548H6.168L5.9,15.968h0l8.288-7.742L6.926,1.932l-.073.984h-1.1l.108-1.489A1.563,1.563,0,0,1,7.4,0ZM.548,12.461a.548.548,0,1,1,0-1.1H7.78a.548.548,0,1,1,0,1.1ZM3.259,9.067a.548.548,0,1,1,0-1.1H9.532a.548.548,0,0,1,0,1.1ZM.548,5.672a.548.548,0,0,1,0-1.1H7.78a.548.548,0,0,1,0,1.1ZM14.987,8.921,6.443,16.9h21.41l-7.026-7.98-2.663,2.138h0a.548.548,0,0,1-.7.008L14.987,8.921Zm6.726-.708L28.6,16.031,29.63,1.862,21.713,8.213ZM7.687,1.094l10.2,8.839L28.9,1.094H7.687Z" fill="rgba(255,255,255,0.63)"/>
</svg>
